<svg xmlns="http://www.w3.org/2000/svg" viewBox="0 0 64 64" width="64" height="64">
  <defs>
    <linearGradient id="typingGradient" x1="0%" y1="0%" x2="100%" y2="100%">
      <stop offset="0%" style="stop-color:#0891b2;stop-opacity:1" />
      <stop offset="100%" style="stop-color:#0e7490;stop-opacity:1" />
    </linearGradient>
    <filter id="typingShadow" x="-20%" y="-20%" width="140%" height="140%">
      <feDropShadow dx="2" dy="2" stdDeviation="2" flood-color="#000000" flood-opacity="0.1"/>
    </filter>
  </defs>
  
  <!-- Background circle -->
  <circle cx="32" cy="32" r="30" fill="url(#typingGradient)" filter="url(#typingShadow)"/>
  
  <!-- Laptop/Computer -->
  <rect x="16" y="28" width="32" height="20" rx="2" fill="white" opacity="0.9"/>
  <rect x="18" y="30" width="28" height="16" rx="1" fill="#f0f9ff"/>
  
  <!-- Screen -->
  <rect x="20" y="32" width="24" height="12" rx="1" fill="#0ea5e9"/>
  <rect x="22" y="34" width="20" height="8" rx="0.5" fill="#0284c7"/>
  
  <!-- Text lines on screen -->
  <rect x="24" y="36" width="16" height="1" rx="0.5" fill="white"/>
  <rect x="24" y="38" width="14" height="1" rx="0.5" fill="white"/>
  <rect x="24" y="40" width="18" height="1" rx="0.5" fill="white"/>
  <rect x="24" y="42" width="12" height="1" rx="0.5" fill="white"/>
  
  <!-- Keyboard -->
  <rect x="20" y="46" width="24" height="2" rx="0.5" fill="#e0f2fe"/>
  
  <!-- Keys -->
  <rect x="22" y="46" width="2" height="2" rx="0.25" fill="#0ea5e9"/>
  <rect x="26" y="46" width="2" height="2" rx="0.25" fill="#0ea5e9"/>
  <rect x="30" y="46" width="2" height="2" rx="0.25" fill="#0ea5e9"/>
  <rect x="34" y="46" width="2" height="2" rx="0.25" fill="#0ea5e9"/>
  <rect x="38" y="46" width="2" height="2" rx="0.25" fill="#0ea5e9"/>
  <rect x="42" y="46" width="2" height="2" rx="0.25" fill="#0ea5e9"/>
  
  <!-- Document -->
  <rect x="44" y="20" width="12" height="16" rx="1" fill="white" opacity="0.8"/>
  <rect x="46" y="22" width="8" height="12" rx="0.5" fill="#f0f9ff"/>
  
  <!-- Document lines -->
  <rect x="47" y="24" width="6" height="1" rx="0.5" fill="#cbd5e1"/>
  <rect x="47" y="26" width="4" height="1" rx="0.5" fill="#cbd5e1"/>
  <rect x="47" y="28" width="6" height="1" rx="0.5" fill="#cbd5e1"/>
  <rect x="47" y="30" width="5" height="1" rx="0.5" fill="#cbd5e1"/>
  
  <!-- Typing cursor -->
  <rect x="40" y="38" width="1" height="2" fill="white"/>
  
  <!-- Corporate building -->
  <rect x="8" y="40" width="8" height="12" rx="1" fill="white" opacity="0.7"/>
  <rect x="9" y="42" width="2" height="2" rx="0.25" fill="#0891b2"/>
  <rect x="13" y="42" width="2" height="2" rx="0.25" fill="#0891b2"/>
  <rect x="9" y="46" width="2" height="2" rx="0.25" fill="#0891b2"/>
  <rect x="13" y="46" width="2" height="2" rx="0.25" fill="#0891b2"/>
</svg> 