<svg xmlns="http://www.w3.org/2000/svg" viewBox="0 0 64 64" width="64" height="64">
  <defs>
    <linearGradient id="docsGradient" x1="0%" y1="0%" x2="100%" y2="100%">
      <stop offset="0%" style="stop-color:#7c3aed;stop-opacity:1" />
      <stop offset="100%" style="stop-color:#6d28d9;stop-opacity:1" />
    </linearGradient>
    <filter id="docsShadow" x="-20%" y="-20%" width="140%" height="140%">
      <feDropShadow dx="2" dy="2" stdDeviation="2" flood-color="#000000" flood-opacity="0.1"/>
    </filter>
  </defs>
  
  <!-- Background circle -->
  <circle cx="32" cy="32" r="30" fill="url(#docsGradient)" filter="url(#docsShadow)"/>
  
  <!-- Document stack -->
  <rect x="16" y="20" width="32" height="24" rx="2" fill="white" opacity="0.9"/>
  <rect x="18" y="22" width="28" height="20" rx="1" fill="#f8fafc"/>
  
  <!-- Document lines -->
  <rect x="20" y="24" width="24" height="2" rx="1" fill="#cbd5e1"/>
  <rect x="20" y="28" width="20" height="2" rx="1" fill="#cbd5e1"/>
  <rect x="20" y="32" width="22" height="2" rx="1" fill="#cbd5e1"/>
  <rect x="20" y="36" width="18" height="2" rx="1" fill="#cbd5e1"/>
  
  <!-- Second document (behind) -->
  <rect x="18" y="26" width="32" height="24" rx="2" fill="white" opacity="0.7"/>
  <rect x="20" y="28" width="28" height="20" rx="1" fill="#f1f5f9"/>
  
  <!-- Third document (furthest back) -->
  <rect x="20" y="30" width="32" height="24" rx="2" fill="white" opacity="0.5"/>
  <rect x="22" y="32" width="28" height="20" rx="1" fill="#e2e8f0"/>
  
  <!-- Checkmark for clearance -->
  <circle cx="48" cy="16" r="6" fill="#10b981"/>
  <path d="M45 16 L47 18 L51 14" stroke="white" stroke-width="2" stroke-linecap="round" stroke-linejoin="round" fill="none"/>
  
  <!-- Stamp -->
  <circle cx="16" cy="48" r="4" fill="#ef4444" opacity="0.8"/>
  <text x="16" y="50" text-anchor="middle" font-family="Arial, sans-serif" font-size="3" font-weight="bold" fill="white">✓</text>
</svg> 