<svg xmlns="http://www.w3.org/2000/svg" viewBox="0 0 64 64" width="64" height="64">
  <defs>
    <linearGradient id="proGradient" x1="0%" y1="0%" x2="100%" y2="100%">
      <stop offset="0%" style="stop-color:#dc2626;stop-opacity:1" />
      <stop offset="100%" style="stop-color:#b91c1c;stop-opacity:1" />
    </linearGradient>
    <filter id="proShadow" x="-20%" y="-20%" width="140%" height="140%">
      <feDropShadow dx="2" dy="2" stdDeviation="2" flood-color="#000000" flood-opacity="0.1"/>
    </filter>
  </defs>
  
  <!-- Background circle -->
  <circle cx="32" cy="32" r="30" fill="url(#proGradient)" filter="url(#proShadow)"/>
  
  <!-- Professional badge -->
  <circle cx="32" cy="32" r="20" fill="white" opacity="0.95"/>
  <circle cx="32" cy="32" r="18" fill="#fef2f2"/>
  
  <!-- Crown for premium service -->
  <path d="M24 28 L28 24 L32 28 L36 24 L40 28 L38 32 L26 32 Z" fill="#dc2626"/>
  <circle cx="28" cy="30" r="1" fill="white"/>
  <circle cx="36" cy="30" r="1" fill="white"/>
  
  <!-- Professional icon -->
  <rect x="28" y="34" width="8" height="10" rx="1" fill="#dc2626"/>
  <circle cx="32" cy="36" r="2" fill="white"/>
  <rect x="30" y="38" width="4" height="4" rx="0.5" fill="white"/>
  
  <!-- Star rating -->
  <path d="M32 20 L34 22 L36 20 L34 18 Z" fill="#fbbf24"/>
  <path d="M28 24 L30 26 L32 24 L30 22 Z" fill="#fbbf24"/>
  <path d="M36 24 L38 26 L40 24 L38 22 Z" fill="#fbbf24"/>
  
  <!-- Pro label -->
  <rect x="26" y="46" width="12" height="6" rx="3" fill="#dc2626"/>
  <text x="32" y="50" text-anchor="middle" font-family="Arial, sans-serif" font-size="4" font-weight="bold" fill="white">PRO</text>
</svg> 